<svg width="24" height="25" viewBox="0 0 24 25" fill="none" xmlns="http://www.w3.org/2000/svg">
<path d="M8.25005 6.11502C8.25005 5.61502 7.85005 5.21502 7.35005 5.21502H2.70005C2.20005 5.21502 1.80005 5.61502 1.80005 6.11502C1.80005 6.61502 2.20005 7.01501 2.70005 7.01501H7.35005C7.84005 7.01501 8.25005 6.60502 8.25005 6.11502Z" fill="#292D32"/>
<path d="M15.75 12.625C15.75 13.125 16.15 13.525 16.65 13.525H21.3C21.8 13.525 22.2 13.125 22.2 12.625C22.2 12.125 21.8 11.725 21.3 11.725H16.65C16.16 11.725 15.75 12.125 15.75 12.625Z" fill="#292D32"/>
<path d="M8.25005 19.135C8.25005 18.635 7.85005 18.235 7.35005 18.235H2.70005C2.20005 18.235 1.80005 18.635 1.80005 19.135C1.80005 19.635 2.20005 20.035 2.70005 20.035H7.35005C7.84005 20.035 8.25005 19.635 8.25005 19.135Z" fill="#292D32"/>
<path d="M10.1699 17.275V20.995C10.1699 21.495 10.5699 21.895 11.0699 21.895C11.5699 21.895 11.9699 21.495 11.9699 20.995V20.035H21.2999C21.7999 20.035 22.1999 19.635 22.1999 19.135C22.1999 18.635 21.7999 18.235 21.2999 18.235H11.9699V17.275C11.9699 16.775 11.5699 16.375 11.0699 16.375C10.5699 16.375 10.1699 16.785 10.1699 17.275Z" fill="#292D32"/>
<path d="M10.1699 4.255V7.975C10.1699 8.475 10.5699 8.875 11.0699 8.875C11.5699 8.875 11.9699 8.475 11.9699 7.975V7.015L21.2999 7.015C21.7999 7.015 22.1999 6.615 22.1999 6.115C22.1999 5.615 21.7999 5.215 21.2999 5.215L11.9699 5.215V4.255C11.9699 3.755 11.5699 3.355 11.0699 3.355C10.5699 3.355 10.1699 3.755 10.1699 4.255Z" fill="#292D32"/>
<path d="M12.03 10.765V11.725H2.70005C2.20005 11.725 1.80005 12.125 1.80005 12.625C1.80005 13.125 2.20005 13.525 2.70005 13.525H12.03V14.485C12.03 14.985 12.43 15.385 12.93 15.385C13.43 15.385 13.83 14.985 13.83 14.485V10.765C13.83 10.265 13.43 9.86501 12.93 9.86501C12.43 9.86501 12.03 10.265 12.03 10.765Z" fill="#292D32"/>
</svg>
