<svg xmlns="http://www.w3.org/2000/svg" width="25" height="25" viewBox="0 0 25 25" fill="none">
  <path fill-rule="evenodd" clip-rule="evenodd" d="M5.43291 7.2249C4.93585 7.2249 4.53291 7.62785 4.53291 8.1249V18.3249C4.53291 18.822 4.93585 19.2249 5.43291 19.2249H15.6329C16.13 19.2249 16.5329 18.822 16.5329 18.3249V13.5249C16.5329 13.0278 16.9359 12.6249 17.4329 12.6249C17.93 12.6249 18.3329 13.0278 18.3329 13.5249V18.3249C18.3329 19.8161 17.1241 21.0249 15.6329 21.0249H5.43291C3.94174 21.0249 2.73291 19.8161 2.73291 18.3249V8.1249C2.73291 6.63373 3.94174 5.4249 5.43291 5.4249H11.4329C11.93 5.4249 12.3329 5.82785 12.3329 6.3249C12.3329 6.82196 11.93 7.2249 11.4329 7.2249H5.43291Z" fill="#0F172A"/>
  <path fill-rule="evenodd" clip-rule="evenodd" d="M7.76553 15.9287C8.09901 16.2973 8.66815 16.3258 9.03673 15.9923L20.1329 5.95288V9.3249C20.1329 9.82196 20.5359 10.2249 21.0329 10.2249C21.53 10.2249 21.9329 9.82196 21.9329 9.3249V3.9249C21.9329 3.42785 21.53 3.0249 21.0329 3.0249H15.6329C15.1359 3.0249 14.7329 3.42785 14.7329 3.9249C14.7329 4.42196 15.1359 4.8249 15.6329 4.8249H18.6967L7.82909 14.6575C7.4605 14.991 7.43205 15.5601 7.76553 15.9287Z" fill="#0F172A"/>
</svg>