<svg width="32" height="32" viewBox="0 0 32 32" fill="none" xmlns="http://www.w3.org/2000/svg">
<path d="M22.3343 4.74669V2.66669C22.3343 2.12002 21.881 1.66669 21.3343 1.66669C20.7876 1.66669 20.3343 2.12002 20.3343 2.66669V4.66669H11.6676V2.66669C11.6676 2.12002 11.2143 1.66669 10.6676 1.66669C10.121 1.66669 9.66762 2.12002 9.66762 2.66669V4.74669C6.06762 5.08002 4.32096 7.22669 4.05429 10.4134C4.02762 10.8 4.34762 11.12 4.72096 11.12H27.281C27.6676 11.12 27.9876 10.7867 27.9476 10.4134C27.681 7.22669 25.9343 5.08002 22.3343 4.74669Z" fill="#000033"/>
<path d="M25.3333 20C22.3867 20 20 22.3867 20 25.3333C20 26.3333 20.28 27.28 20.7733 28.08C21.6933 29.6267 23.3867 30.6667 25.3333 30.6667C27.28 30.6667 28.9733 29.6267 29.8933 28.08C30.3867 27.28 30.6667 26.3333 30.6667 25.3333C30.6667 22.3867 28.28 20 25.3333 20ZM28.0933 24.76L25.2533 27.3867C25.0667 27.56 24.8133 27.6533 24.5733 27.6533C24.32 27.6533 24.0667 27.56 23.8667 27.36L22.5467 26.04C22.16 25.6533 22.16 25.0133 22.5467 24.6267C22.9333 24.24 23.5733 24.24 23.96 24.6267L24.6 25.2667L26.7333 23.2933C27.1333 22.92 27.7733 22.9467 28.1467 23.3467C28.52 23.7467 28.4933 24.3733 28.0933 24.76Z" fill="#000033"/>
<path d="M26.6667 13.12H5.33333C4.6 13.12 4 13.72 4 14.4533V22.6667C4 26.6667 6 29.3333 10.6667 29.3333H17.24C18.16 29.3333 18.8 28.44 18.5067 27.5733C18.24 26.8 18.0133 25.9467 18.0133 25.3333C18.0133 21.2933 21.3067 18 25.3467 18C25.7333 18 26.12 18.0267 26.4933 18.0933C27.2933 18.2133 28.0133 17.5867 28.0133 16.7867V14.4667C28 13.72 27.4 13.12 26.6667 13.12ZM12.28 24.28C12.0267 24.52 11.68 24.6667 11.3333 24.6667C10.9867 24.6667 10.64 24.52 10.3867 24.28C10.1467 24.0267 10 23.68 10 23.3333C10 22.9867 10.1467 22.64 10.3867 22.3867C10.52 22.2667 10.6533 22.1733 10.8267 22.1067C11.32 21.8933 11.9067 22.0133 12.28 22.3867C12.52 22.64 12.6667 22.9867 12.6667 23.3333C12.6667 23.68 12.52 24.0267 12.28 24.28ZM12.28 19.6133C12.2133 19.6667 12.1467 19.72 12.08 19.7733C12 19.8267 11.92 19.8667 11.84 19.8933C11.76 19.9333 11.68 19.96 11.6 19.9733C11.5067 19.9867 11.4133 20 11.3333 20C10.9867 20 10.64 19.8533 10.3867 19.6133C10.1467 19.36 10 19.0133 10 18.6667C10 18.32 10.1467 17.9733 10.3867 17.72C10.6933 17.4133 11.16 17.2667 11.6 17.36C11.68 17.3733 11.76 17.4 11.84 17.44C11.92 17.4667 12 17.5067 12.08 17.56C12.1467 17.6133 12.2133 17.6667 12.28 17.72C12.52 17.9733 12.6667 18.32 12.6667 18.6667C12.6667 19.0133 12.52 19.36 12.28 19.6133ZM16.9467 19.6133C16.6933 19.8533 16.3467 20 16 20C15.6533 20 15.3067 19.8533 15.0533 19.6133C14.8133 19.36 14.6667 19.0133 14.6667 18.6667C14.6667 18.32 14.8133 17.9733 15.0533 17.72C15.56 17.2267 16.4533 17.2267 16.9467 17.72C17.1867 17.9733 17.3333 18.32 17.3333 18.6667C17.3333 19.0133 17.1867 19.36 16.9467 19.6133Z" fill="#000033"/>
</svg>
