<svg width="24" height="25" viewBox="0 0 24 25" fill="none" xmlns="http://www.w3.org/2000/svg">
<path d="M21 22.5H3C2.59 22.5 2.25 22.16 2.25 21.75C2.25 21.34 2.59 21 3 21H21C21.41 21 21.75 21.34 21.75 21.75C21.75 22.16 21.41 22.5 21 22.5Z" fill="#000033"/>
<path d="M19.0206 3.98004C17.0806 2.04004 15.1806 1.99004 13.1906 3.98004L11.9806 5.19004C11.8806 5.29004 11.8406 5.45004 11.8806 5.59004C12.6406 8.24004 14.7606 10.36 17.4106 11.12C17.4506 11.13 17.4906 11.14 17.5306 11.14C17.6406 11.14 17.7406 11.1 17.8206 11.02L19.0206 9.81004C20.0106 8.83004 20.4906 7.88004 20.4906 6.92004C20.5006 5.93004 20.0206 4.97004 19.0206 3.98004Z" fill="#000033"/>
<path d="M15.6103 12.03C15.3203 11.89 15.0403 11.75 14.7703 11.59C14.5503 11.46 14.3403 11.32 14.1303 11.17C13.9603 11.06 13.7603 10.9 13.5703 10.74C13.5503 10.73 13.4803 10.67 13.4003 10.59C13.0703 10.31 12.7003 9.95005 12.3703 9.55005C12.3403 9.53005 12.2903 9.46005 12.2203 9.37005C12.1203 9.25005 11.9503 9.05005 11.8003 8.82005C11.6803 8.67005 11.5403 8.45005 11.4103 8.23005C11.2503 7.96005 11.1103 7.69005 10.9703 7.41005C10.9491 7.36465 10.9286 7.31949 10.9088 7.27458C10.7612 6.94127 10.3265 6.84382 10.0688 7.10158L4.34032 12.83C4.21032 12.96 4.09032 13.21 4.06032 13.38L3.52032 17.21C3.42032 17.89 3.61032 18.53 4.03032 18.96C4.39032 19.31 4.89032 19.5 5.43032 19.5C5.55032 19.5 5.67032 19.49 5.79032 19.47L9.63032 18.93C9.81032 18.9 10.0603 18.78 10.1803 18.65L15.9016 12.9287C16.1612 12.6692 16.0633 12.2237 15.7257 12.0797C15.6877 12.0634 15.6492 12.0469 15.6103 12.03Z" fill="#000033"/>
</svg>
