<svg width="32" height="32" viewBox="0 0 32 32" fill="none" xmlns="http://www.w3.org/2000/svg">
<path d="M22.4 2.66669H18.9333C14.6667 2.66669 12 5.33335 12 9.60002V15H20.3333C20.88 15 21.3333 15.4534 21.3333 16C21.3333 16.5467 20.88 17 20.3333 17H12V22.4C12 26.6667 14.6667 29.3334 18.9333 29.3334H22.3867C26.6533 29.3334 29.32 26.6667 29.32 22.4V9.60002C29.3333 5.33335 26.6667 2.66669 22.4 2.66669Z" fill="#000033"/>
<path d="M6.07992 15L8.83992 12.24C9.03992 12.04 9.13326 11.7867 9.13326 11.5333C9.13326 11.28 9.03992 11.0133 8.83992 10.8267C8.45326 10.44 7.81326 10.44 7.42659 10.8267L2.95992 15.2933C2.57326 15.68 2.57326 16.32 2.95992 16.7067L7.42659 21.1733C7.81326 21.56 8.45326 21.56 8.83992 21.1733C9.22659 20.7867 9.22659 20.1467 8.83992 19.76L6.07992 17H11.9999V15H6.07992Z" fill="#000033"/>
</svg>
