<svg width="32" height="32" viewBox="0 0 32 32" fill="none" xmlns="http://www.w3.org/2000/svg">
<path d="M11.0527 8.38669C10.4927 8.38669 10.0527 7.93335 10.0527 7.38669V3.66669C10.0527 3.12002 10.4927 2.66669 11.0527 2.66669C11.6127 2.66669 12.0527 3.12002 12.0527 3.66669V7.37335C12.0527 7.93335 11.6127 8.38669 11.0527 8.38669Z" fill="#000033"/>
<path d="M20.9473 8.38669C20.3873 8.38669 19.9473 7.93335 19.9473 7.38669V3.66669C19.9473 3.10669 20.4006 2.66669 20.9473 2.66669C21.5073 2.66669 21.9473 3.12002 21.9473 3.66669V7.37335C21.9473 7.93335 21.5073 8.38669 20.9473 8.38669Z" fill="#000033"/>
<path d="M26.094 6.00002C25.214 5.34669 23.9473 5.97335 23.9473 7.08002V7.21335C23.9473 8.77335 22.8273 10.2134 21.2673 10.3734C19.4673 10.56 17.9473 9.14669 17.9473 7.38669V6.00002C17.9473 5.26669 17.3473 4.66669 16.614 4.66669H15.3873C14.654 4.66669 14.054 5.26669 14.054 6.00002V7.38669C14.054 8.44002 13.5073 9.37335 12.6807 9.89335C12.5607 9.97335 12.4273 10.04 12.294 10.1067C12.174 10.1734 12.0407 10.2267 11.894 10.2667C11.734 10.32 11.5606 10.36 11.374 10.3734C11.1607 10.4 10.9473 10.4 10.734 10.3734C10.5473 10.36 10.374 10.32 10.214 10.2667C10.0807 10.2267 9.94732 10.1734 9.81398 10.1067C9.68065 10.04 9.54732 9.97335 9.42732 9.89335C8.58732 9.30669 8.05398 8.29335 8.05398 7.21335V7.08002C8.05398 6.05335 6.96065 5.44002 6.09398 5.88002C6.08065 5.89335 6.06732 5.89335 6.05398 5.90669C6.00065 5.93335 5.96065 5.96002 5.90732 6.00002C5.86732 6.04002 5.81398 6.06669 5.77398 6.10669C5.40065 6.40002 5.06732 6.73335 4.78732 7.09335C4.64065 7.25335 4.52065 7.42669 4.41398 7.60002C4.40065 7.61335 4.38732 7.62669 4.37398 7.65335C4.25398 7.82669 4.14732 8.02669 4.05398 8.21335C4.02732 8.24002 4.01398 8.25335 4.01398 8.28002C3.93398 8.44002 3.85398 8.60002 3.80065 8.77335C3.76065 8.84002 3.74732 8.89335 3.72065 8.96002C3.64065 9.16002 3.58732 9.36002 3.53398 9.56002C3.48065 9.74669 3.44065 9.94669 3.41398 10.1467C3.38732 10.2934 3.37398 10.44 3.36065 10.6C3.34732 10.7867 3.33398 10.9734 3.33398 11.16V22.84C3.33398 26.4267 6.24065 29.3334 9.82732 29.3334H22.174C25.7606 29.3334 28.6673 26.4267 28.6673 22.84V11.16C28.6673 9.04002 27.654 7.18669 26.094 6.00002ZM16.0007 23.2267H9.81398C9.26732 23.2267 8.81398 22.7734 8.81398 22.2267C8.81398 21.6667 9.26732 21.2134 9.81398 21.2134H16.0007C16.5606 21.2134 17.0007 21.6667 17.0007 22.2267C17.0007 22.7734 16.5606 23.2267 16.0007 23.2267ZM19.7073 18.28H9.81398C9.26732 18.28 8.81398 17.8267 8.81398 17.28C8.81398 16.72 9.26732 16.2667 9.81398 16.2667H19.7073C20.2673 16.2667 20.7206 16.72 20.7206 17.28C20.7206 17.8267 20.2673 18.28 19.7073 18.28Z" fill="#000033"/>
</svg>
