<svg width="69" height="84" viewBox="0 0 69 84" fill="none" xmlns="http://www.w3.org/2000/svg">
<g filter="url(#filter0_d_2002_1172)">
<path d="M30.1089 27.5189C30.1089 20.6772 35.7257 15.1309 42.6543 15.1309H46.8361C51.4552 15.1309 55.1998 18.8284 55.1998 23.3896V39.907H42.6543C35.7257 39.907 30.1089 34.3606 30.1089 27.5189Z" fill="#0065B5"/>
</g>
<path d="M45.7909 23.8028C50.9874 23.8028 55.2 19.6431 55.2 14.5117C55.2 9.38045 50.9874 5.2207 45.7909 5.2207C40.5944 5.2207 36.3818 9.38045 36.3818 14.5117C36.3818 19.6431 40.5944 23.8028 45.7909 23.8028Z" fill="#00013E"/>
<g filter="url(#filter1_d_2002_1172)">
<path d="M10.0361 22.564C10.0361 12.9855 17.8996 5.2207 27.5998 5.2207C37.2999 5.2207 45.1634 12.9855 45.1634 22.564V39.9073H27.5998C17.8996 39.9073 10.0361 32.1424 10.0361 22.564Z" fill="url(#paint0_linear_2002_1172)"/>
</g>
<path d="M23.1302 58.4895H19.8959L18.9586 55.5951H14.2725L13.3444 58.4895H10.1284L14.9249 45.4784H18.4441L23.1302 58.4895ZM18.2786 53.345L16.8636 48.9716C16.7595 48.6449 16.686 48.2548 16.6431 47.8012H16.5696C16.539 48.1822 16.4624 48.5603 16.3399 48.9353L14.9064 53.345H18.2786ZM27.6175 58.4895H24.6495V45.4784H27.6175V58.4895ZM41.425 46.93C41.0514 46.785 40.693 46.7124 40.35 46.7124C39.4189 46.7124 38.9533 47.2114 38.9533 48.2095V49.1984H41.1035V51.3124H38.9533V58.4895H36.0589V51.3124H34.4785V49.1984H36.0589V48.0461C36.0589 46.9875 36.4081 46.1347 37.1064 45.4875C37.8048 44.8402 38.7542 44.5166 39.9548 44.5166C40.5429 44.5166 41.033 44.5771 41.425 44.6981V46.93ZM46.8679 58.7163C45.2997 58.7163 44.0653 58.2838 43.1648 57.4188C42.2706 56.5478 41.8233 55.3683 41.8233 53.8802C41.8233 52.3439 42.2889 51.1431 43.22 50.2782C44.1511 49.4072 45.41 48.9716 46.9964 48.9716C48.5586 48.9716 49.7837 49.4072 50.6719 50.2782C51.5601 51.1431 52.0042 52.2894 52.0042 53.717C52.0042 55.2594 51.5448 56.4783 50.626 57.3734C49.7133 58.2687 48.4605 58.7163 46.8679 58.7163ZM46.9414 51.1674C46.2553 51.1674 45.7223 51.4002 45.3426 51.8659C44.9627 52.3317 44.7729 52.991 44.7729 53.8439C44.7729 55.6283 45.5018 56.5205 46.9597 56.5205C48.3502 56.5205 49.0455 55.6042 49.0455 53.7713C49.0455 52.0353 48.3442 51.1674 46.9414 51.1674ZM59.9005 51.7843C59.5513 51.5967 59.144 51.5031 58.6784 51.5031C58.0474 51.5031 57.5543 51.7329 57.199 52.1926C56.8438 52.6463 56.6661 53.2663 56.6661 54.0527V58.4895H53.7625V49.1984H56.6661V50.9223H56.7029C57.1623 49.6642 57.9892 49.0351 59.1837 49.0351C59.49 49.0351 59.729 49.0714 59.9005 49.144V51.7843Z" fill="white"/>
<path d="M7.5273 73.3556H1.20557V62.9468H7.28472V64.8558H3.5799V67.1713H7.02744V69.0731H3.5799V71.4538H7.5273V73.3556ZM16.2302 73.3556H13.9073V72.3321H13.8779C13.3486 73.1355 12.572 73.5371 11.5477 73.5371C10.6068 73.5371 9.84968 73.2104 9.27631 72.5572C8.70295 71.899 8.41626 70.9821 8.41626 69.8062C8.41626 68.5771 8.73235 67.5923 9.36452 66.8519C9.9967 66.1115 10.8249 65.7413 11.8491 65.7413C12.8195 65.7413 13.4957 66.085 13.8779 66.772H13.9073V62.3516H16.2302V73.3556ZM13.9514 69.7408V69.182C13.9514 68.698 13.8093 68.2963 13.5252 67.977C13.2409 67.6576 12.8709 67.4979 12.4151 67.4979C11.9006 67.4979 11.4987 67.6987 11.2096 68.1004C10.9205 68.4972 10.7759 69.044 10.7759 69.7408C10.7759 70.3941 10.9156 70.8973 11.1949 71.2507C11.4742 71.6038 11.8614 71.7805 12.3563 71.7805C12.8268 71.7805 13.209 71.5942 13.5031 71.2215C13.802 70.849 13.9514 70.3554 13.9514 69.7408ZM25.2125 73.3556H22.897V72.2232H22.8602C22.2868 73.0992 21.5199 73.5371 20.5594 73.5371C18.8148 73.5371 17.9425 72.4943 17.9425 70.4086V65.9228H20.258V70.2053C20.258 71.2555 20.6795 71.7805 21.5224 71.7805C21.9389 71.7805 22.2721 71.6378 22.522 71.3522C22.772 71.0619 22.897 70.6699 22.897 70.1764V65.9228H25.2125V73.3556ZM32.754 73.0871C32.2295 73.3871 31.4724 73.5371 30.4826 73.5371C29.326 73.5371 28.39 73.1911 27.6745 72.4991C26.9591 71.8071 26.6013 70.9143 26.6013 69.8207C26.6013 68.5577 26.9835 67.5632 27.7481 66.8374C28.5175 66.1066 29.5441 65.7413 30.828 65.7413C31.7151 65.7413 32.357 65.8575 32.754 66.0898V68.0351C32.2688 67.6769 31.7272 67.4979 31.1294 67.4979C30.4629 67.4979 29.9337 67.6914 29.5417 68.0786C29.1545 68.4609 28.961 68.9908 28.961 69.6682C28.961 70.3264 29.1471 70.8442 29.5196 71.2215C29.8921 71.5942 30.4042 71.7805 31.0559 71.7805C31.6341 71.7805 32.2002 71.6015 32.754 71.2433V73.0871ZM40.4204 73.3556H38.2225V72.2886H38.1932C37.6883 73.1209 36.941 73.5371 35.951 73.5371C35.2209 73.5371 34.6451 73.3338 34.2236 72.9274C33.8071 72.5161 33.5988 71.9693 33.5988 71.2869C33.5988 69.8449 34.4638 69.0125 36.1937 68.79L38.2372 68.5214C38.2372 67.7084 37.7912 67.302 36.8993 67.302C36.0026 67.302 35.1499 67.5657 34.3412 68.0932V66.3655C34.6647 66.201 35.1057 66.0558 35.6644 65.9301C36.2279 65.8042 36.74 65.7413 37.2007 65.7413C39.3472 65.7413 40.4204 66.7986 40.4204 68.9134V73.3556ZM38.2372 70.336V69.8352L36.87 70.0094C36.1153 70.1062 35.7379 70.4425 35.7379 71.0184C35.7379 71.2796 35.8286 71.4949 36.0099 71.6644C36.1962 71.8289 36.4461 71.9112 36.7597 71.9112C37.1958 71.9112 37.5511 71.7635 37.8256 71.4684C38.0999 71.1684 38.2372 70.7909 38.2372 70.336ZM46.6828 73.2685C46.3398 73.4475 45.8228 73.5371 45.1318 73.5371C43.495 73.5371 42.6767 72.6976 42.6767 71.0184V67.614H41.4564V65.9228H42.6767V64.3187L44.9922 63.6653V65.9228H46.6828V67.614H44.9922V70.6191C44.9922 71.3934 45.3033 71.7805 45.9257 71.7805C46.1707 71.7805 46.4231 71.7104 46.6828 71.57V73.2685ZM51.4016 73.5371C50.1471 73.5371 49.1596 73.1911 48.4392 72.4991C47.7237 71.8023 47.366 70.8587 47.366 69.6682C47.366 68.4391 47.7384 67.4786 48.4833 66.7866C49.2281 66.0898 50.2353 65.7413 51.5045 65.7413C52.7542 65.7413 53.7342 66.0898 54.4448 66.7866C55.1555 67.4786 55.5108 68.3956 55.5108 69.5376C55.5108 70.7716 55.1432 71.7467 54.4082 72.4628C53.6779 73.179 52.6758 73.5371 51.4016 73.5371ZM51.4604 67.4979C50.9115 67.4979 50.4852 67.6842 50.1813 68.0569C49.8775 68.4294 49.7256 68.9569 49.7256 69.6392C49.7256 71.0667 50.3088 71.7805 51.4752 71.7805C52.5876 71.7805 53.1437 71.0474 53.1437 69.5811C53.1437 68.1923 52.5827 67.4979 51.4604 67.4979ZM61.8026 67.9915C61.5232 67.8415 61.1974 67.7665 60.8249 67.7665C60.3201 67.7665 59.9256 67.9503 59.6414 68.3182C59.3572 68.6811 59.2151 69.1771 59.2151 69.8062V73.3556H56.8922V65.9228H59.2151V67.302H59.2444C59.612 66.2954 60.2735 65.7921 61.2292 65.7921C61.4743 65.7921 61.6653 65.8212 61.8026 65.8792V67.9915ZM62.3607 73.1597V71.3014C62.743 71.5289 63.1227 71.6982 63.5001 71.8096C63.8824 71.9208 64.2425 71.9765 64.5806 71.9765C64.9924 71.9765 65.3158 71.9208 65.551 71.8096C65.7912 71.6982 65.9112 71.5289 65.9112 71.3014C65.9112 71.1563 65.8573 71.0353 65.7495 70.9385C65.6416 70.8417 65.502 70.757 65.3305 70.6845C65.1639 70.6119 64.9801 70.5465 64.7791 70.4884C64.5783 70.4304 64.3847 70.365 64.1985 70.2924C63.8995 70.1812 63.6348 70.0626 63.4045 69.9368C63.1792 69.8062 62.988 69.6562 62.8312 69.4868C62.6793 69.3174 62.5617 69.1214 62.4784 68.8988C62.4 68.6763 62.3607 68.4125 62.3607 68.1077C62.3607 67.6914 62.4514 67.3334 62.6327 67.0334C62.8189 66.7333 63.064 66.4889 63.3677 66.3003C63.6765 66.1066 64.0269 65.9664 64.4189 65.8792C64.8159 65.7873 65.2276 65.7413 65.6539 65.7413C65.9871 65.7413 66.3253 65.7679 66.6683 65.8212C67.0113 65.8695 67.3495 65.9421 67.6828 66.039V67.81C67.3887 67.6406 67.0727 67.5149 66.7344 67.4327C66.4012 67.3454 66.0729 67.302 65.7495 67.302C65.5976 67.302 65.453 67.3164 65.3158 67.3454C65.1834 67.3697 65.0659 67.4084 64.9629 67.4616C64.86 67.51 64.7791 67.5754 64.7204 67.6576C64.6616 67.735 64.6322 67.8246 64.6322 67.9262C64.6322 68.0617 64.6762 68.1778 64.7644 68.2745C64.8526 68.3714 64.9678 68.456 65.1099 68.5286C65.2521 68.5964 65.4089 68.6593 65.5804 68.7174C65.7568 68.7706 65.9308 68.8263 66.1023 68.8843C66.411 68.9908 66.6904 69.1069 66.9403 69.2328C67.1902 69.3585 67.4034 69.5062 67.5799 69.6755C67.7612 69.8449 67.8984 70.0433 67.9915 70.2708C68.0895 70.4982 68.1385 70.7691 68.1385 71.0837C68.1385 71.5241 68.0406 71.9015 67.8445 72.2161C67.6534 72.5258 67.3961 72.7798 67.0727 72.9782C66.7541 73.1718 66.384 73.312 65.9626 73.3992C65.5461 73.4912 65.1124 73.5371 64.6616 73.5371C63.8333 73.5371 63.0664 73.4113 62.3607 73.1597Z" fill="white"/>
<defs>
<filter id="filter0_d_2002_1172" x="25.1089" y="12.1309" width="35.0908" height="34.7764" filterUnits="userSpaceOnUse" color-interpolation-filters="sRGB">
<feFlood flood-opacity="0" result="BackgroundImageFix"/>
<feColorMatrix in="SourceAlpha" type="matrix" values="0 0 0 0 0 0 0 0 0 0 0 0 0 0 0 0 0 0 127 0" result="hardAlpha"/>
<feOffset dy="2"/>
<feGaussianBlur stdDeviation="2.5"/>
<feComposite in2="hardAlpha" operator="out"/>
<feColorMatrix type="matrix" values="0 0 0 0 0.180392 0 0 0 0 0.25098 0 0 0 0 0.341176 0 0 0 0.25 0"/>
<feBlend mode="normal" in2="BackgroundImageFix" result="effect1_dropShadow_2002_1172"/>
<feBlend mode="normal" in="SourceGraphic" in2="effect1_dropShadow_2002_1172" result="shape"/>
</filter>
<filter id="filter1_d_2002_1172" x="7.03613" y="1.2207" width="43.1274" height="42.6865" filterUnits="userSpaceOnUse" color-interpolation-filters="sRGB">
<feFlood flood-opacity="0" result="BackgroundImageFix"/>
<feColorMatrix in="SourceAlpha" type="matrix" values="0 0 0 0 0 0 0 0 0 0 0 0 0 0 0 0 0 0 127 0" result="hardAlpha"/>
<feOffset dx="1"/>
<feGaussianBlur stdDeviation="2"/>
<feComposite in2="hardAlpha" operator="out"/>
<feColorMatrix type="matrix" values="0 0 0 0 0 0 0 0 0 0 0 0 0 0 0 0 0 0 0.7 0"/>
<feBlend mode="normal" in2="BackgroundImageFix" result="effect1_dropShadow_2002_1172"/>
<feBlend mode="normal" in="SourceGraphic" in2="effect1_dropShadow_2002_1172" result="shape"/>
</filter>
<linearGradient id="paint0_linear_2002_1172" x1="10.0361" y1="5.75384" x2="44.7336" y2="39.812" gradientUnits="userSpaceOnUse">
<stop stop-color="#0065B5"/>
<stop offset="1" stop-color="#000947"/>
</linearGradient>
</defs>
</svg>
