<svg width="17" height="19" viewBox="0 0 17 19" fill="none" xmlns="http://www.w3.org/2000/svg">
<path d="M16.0968 0.265625H1.33972C0.969261 0.265625 0.668945 0.601411 0.668945 1.01562V17.5156C0.668945 17.9298 0.969261 18.2656 1.33972 18.2656H9.2677V11.2951H7.16976V8.57852H9.2677V6.57514C9.2677 4.25023 10.5377 2.98427 12.3926 2.98427C13.2811 2.98427 14.0447 3.05823 14.2673 3.0913V5.52097L12.9808 5.52162C11.972 5.52162 11.7767 6.0576 11.7767 6.84412V8.57852H14.1826L13.8693 11.2951H11.7767V18.2656H16.0968C16.4672 18.2656 16.7675 17.9298 16.7675 17.5156V1.01562C16.7675 0.601411 16.4672 0.265625 16.0968 0.265625Z" fill="#7D818D"/>
</svg>
