<svg width="16" height="16" viewBox="0 0 16 16" fill="none" xmlns="http://www.w3.org/2000/svg">
<path fill-rule="evenodd" clip-rule="evenodd" d="M15.2042 2.00532C14.6341 2.31459 14.0322 2.50789 13.3987 2.62387C14.0322 2.15996 14.539 1.42542 14.7608 0.536244C14.1589 0.961501 13.4938 1.27078 12.7652 1.46408C12.1951 0.729543 11.3715 0.265625 10.4846 0.265625C8.77411 0.265625 7.38038 1.96666 7.38038 4.05428C7.38038 4.36356 7.41206 4.63418 7.47541 4.9048C4.9097 4.75016 2.59739 3.24243 1.04529 0.922841C0.791887 1.50274 0.633509 2.12129 0.633509 2.81717C0.633509 4.1316 1.17199 5.2914 2.02723 5.98727C1.52042 5.94862 1.04529 5.79398 0.601834 5.52336V5.56202C0.601834 7.41769 1.6788 8.96408 3.1042 9.31202C2.85079 9.38934 2.56571 9.428 2.28063 9.428C2.09058 9.428 1.86885 9.38934 1.6788 9.35068C2.09058 10.8584 3.2309 11.9795 4.59294 11.9795C3.51598 12.9847 2.18561 13.6033 0.728536 13.6033C0.475132 13.6033 0.221728 13.6033 0 13.5646C1.39372 14.6471 3.00917 15.2656 4.783 15.2656C10.5163 15.2656 13.6521 9.46666 13.6521 4.44088C13.6521 4.28624 13.6521 4.09294 13.6521 3.93831C14.254 3.43573 14.7924 2.77851 15.2042 2.00532Z" fill="#68D585"/>
</svg>
