<svg width="17" height="19" viewBox="0 0 17 19" fill="none" xmlns="http://www.w3.org/2000/svg">
<path fill-rule="evenodd" clip-rule="evenodd" d="M1.57214 0.265625H16.3292C16.6981 0.265625 17 0.603125 17 1.01562V17.5156C17 17.9281 16.6981 18.2656 16.3292 18.2656H1.57214C1.20322 18.2656 0.901367 17.9281 0.901367 17.5156V1.01562C0.901367 0.603125 1.20322 0.265625 1.57214 0.265625ZM3.28299 15.6031H5.66423V7.01562H3.28299V15.6031ZM4.49019 5.85332C3.7188 5.85332 3.1151 5.17832 3.1151 4.31582C3.1151 3.45332 3.7188 2.77832 4.49019 2.77832C5.26158 2.77832 5.86528 3.45332 5.86528 4.31582C5.86528 5.14082 5.26158 5.85332 4.49019 5.85332ZM12.2374 15.603H14.5851V10.878C14.5851 8.55303 14.1491 6.79053 11.7343 6.79053C10.594 6.79053 9.78905 7.50303 9.4872 8.17803H9.45367V7.01553H7.17303V15.603H9.55428V11.3655C9.55428 10.2405 9.75552 9.15303 10.9964 9.15303C12.2374 9.15303 12.2374 10.428 12.2374 11.4405V15.603Z" fill="#7D818D"/>
</svg>
