<svg width="17" height="19" viewBox="0 0 17 19" fill="none" xmlns="http://www.w3.org/2000/svg">
<path fill-rule="evenodd" clip-rule="evenodd" d="M5.06853 0.319625C5.92712 0.276125 6.20113 0.265625 8.38719 0.265625C10.5732 0.265625 10.8472 0.276125 11.7058 0.319625C13.0145 0.386375 14.1632 0.744875 15.0855 1.77612C16.0082 2.80775 16.3285 4.0925 16.3882 5.555C16.4271 6.515 16.4365 6.82137 16.4365 9.26562C16.4365 11.7099 16.4271 12.0162 16.3882 12.9762C16.3285 14.4395 16.0079 15.7239 15.0855 16.7551C14.1629 17.7868 13.0135 18.1449 11.7058 18.2116C10.8472 18.2551 10.5732 18.2656 8.38719 18.2656C6.20113 18.2656 5.92712 18.2551 5.06853 18.2116C3.75985 18.1449 2.61115 17.7864 1.68883 16.7551C0.76618 15.7235 0.445885 14.4387 0.386186 12.9762C0.347281 12.0162 0.337891 11.7099 0.337891 9.26562C0.337891 6.82137 0.347281 6.515 0.386186 5.555C0.445885 4.09175 0.766515 2.80737 1.68883 1.77612C2.61148 0.7445 3.76052 0.386375 5.06853 0.319625ZM11.6398 1.93971C10.791 1.89621 10.5364 1.88721 8.38725 1.88721C6.23809 1.88721 5.98353 1.89658 5.13466 1.93971C4.21872 1.98658 3.36851 2.19171 2.71451 2.92296C2.0605 3.65421 1.87705 4.60483 1.83512 5.62895C1.79622 6.57808 1.78817 6.8627 1.78817 9.2657C1.78817 11.6687 1.79655 11.9533 1.83512 12.9024C1.87705 13.9266 2.0605 14.8772 2.71451 15.6084C3.36851 16.3397 4.21872 16.5448 5.13466 16.5917C5.98319 16.6352 6.23775 16.6442 8.38725 16.6442C10.5367 16.6442 10.7913 16.6348 11.6398 16.5917C12.5558 16.5448 13.406 16.3397 14.06 15.6084C14.714 14.8772 14.8974 13.9266 14.9394 12.9024C14.9783 11.9533 14.9863 11.6687 14.9863 9.2657C14.9863 6.8627 14.9779 6.57808 14.9394 5.62895C14.8974 4.60483 14.714 3.65421 14.06 2.92296C13.406 2.19171 12.5558 1.98658 11.6398 1.93971Z" fill="#7D818D"/>
<path fill-rule="evenodd" clip-rule="evenodd" d="M4.72803 9.6748C4.72803 7.18965 6.52971 5.1748 8.75267 5.1748C10.9756 5.1748 12.7773 7.18929 12.7773 9.6748C12.7773 12.1603 10.9756 14.1748 8.75267 14.1748C6.52971 14.1748 4.72803 12.16 4.72803 9.6748ZM6.14015 9.67503C6.14015 11.2882 7.30992 12.5962 8.75271 12.5962C10.1955 12.5962 11.3653 11.2882 11.3653 9.67503C11.3653 8.06184 10.1955 6.75391 8.75271 6.75391C7.30992 6.75391 6.14015 8.06184 6.14015 9.67503Z" fill="#7D818D"/>
<ellipse cx="12.4116" cy="4.76634" rx="1.09763" ry="1.22728" fill="#7D818D"/>
</svg>
